# xmcd
#
# Track frame offsets:
#	150
#	881
#	15804
#	28778
#	44280
#	63914
#	65423
#	82496
#	100291
#	109218
#	129586
#	143038
#	159954
#	176968
#	194431
#	210201
#	224270
#	243564
#	261588
#	273569
#	289509
#	308763
#	321272
#	343298
#	343917
#
# Disc length: 4616 seconds
#
# Revision: 1
# Processed by: cddbd v1.5.2PL0 Copyright (c) Steve Scherf et al.
# Submitted via: audiograbber 1.83.01
#
DISCID=79120619
DTITLE=Country Hotdisc - Country Hotdisc 100
DYEAR=2007
DGENRE=Country
TTITLE0=Intro  - Intro 
TTITLE1=I Own The Barstole - Randy Archer
TTITLE2=Country Music  - Elisabeth Ames and Countrypolitans
TTITLE3=I Don´t Want To Want You  - Lobo
TTITLE4=Blue Mouintain Rain - Karen Lynne
TTITLE5=Soundbite  - Billy Yates
TTITLE6=Choices  - Billy Yates and George Jones
TTITLE7=More Than One Heart  - Dave Sheriff
TTITLE8=Razorback Steak  - Bryan Chalker and Legacy
TTITLE9=Love Train  - Aristocats
TTITLE10=Done Carmela  - Cerrito
TTITLE11=Last Dollar  - Tim Mcraw
TTITLE12=Suspicion  - D K Davis
TTITLE13=Lonely Hearts Club Dance  - Jackie Barnett
TTITLE14=Band In The Window  - Pam Tillis
TTITLE15=Redneck Hauler  - Dough Deforest
TTITLE16=Reach For The Stars  - Skyla Spencer
TTITLE17=Somebody Help Me  - Peter Mason
TTITLE18=Define Maybe  - Michelle Rae
TTITLE19=Don´t Wake Me Up ´til We Touch Down In Shannon  - Robert Mizzell
TTITLE20=Sweet Warm Wind Of Arkansas  - Tom Hunnicutt
TTITLE21=Strong Enough To Bend  - Roisin
TTITLE22=Point Of View  - Richard Frankz
TTITLE23=Soundbite  - Billy Yates
TTITLE24=Id  - D K Davis Promo
EXTD=
EXTT0=
EXTT1=
EXTT2=
EXTT3=
EXTT4=
EXTT5=
EXTT6=
EXTT7=
EXTT8=
EXTT9=
EXTT10=
EXTT11=
EXTT12=
EXTT13=
EXTT14=
EXTT15=
EXTT16=
EXTT17=
EXTT18=
EXTT19=
EXTT20=
EXTT21=
EXTT22=
EXTT23=
EXTT24=
PLAYORDER=
